<svg xmlns="http://www.w3.org/2000/svg" viewBox="0 0 135.72 118.11"><defs><style>.cls-1{fill:#ffdf8a;stroke:#fcee21;stroke-width:0.57px;}.cls-1,.cls-4,.cls-5{stroke-miterlimit:10;}.cls-2{fill:#87d9b5;}.cls-3,.cls-6{fill:#38a3b4;}.cls-4{fill:#e6e6e6;}.cls-4,.cls-5{stroke:#fff;stroke-width:0.65px;}.cls-5{fill:none;}.cls-6{stroke:#38a3b4;stroke-linecap:round;stroke-linejoin:round;stroke-width:1.15px;}</style></defs><title>Asset 2</title><g id="Layer_2" data-name="Layer 2"><g id="Layer_1-2" data-name="Layer 1"><circle class="cls-1" cx="57.49" cy="60.63" r="57.2"/><circle class="cls-2" cx="78.51" cy="57.2" r="57.2"/><path class="cls-3" d="M58.77,3a57.21,57.21,0,0,0,18.14,111A57.21,57.21,0,0,0,58.77,3Z"/><path class="cls-4" d="M51.63,61.64a24.74,24.74,0,0,1,5.52,15.28H79.67A25.29,25.29,0,0,1,86.5,60.07l.49-.59c4.24-4.54,6.35-10.73,6.35-17.43A25.42,25.42,0,1,0,51.26,61.27,2.54,2.54,0,0,1,51.63,61.64Z"/><path class="cls-5" d="M79.65,76.92H57.16v15h.06a10.6,10.6,0,0,0-.06,1.14,11.25,11.25,0,0,0,22.49,0c0-.39,0-.77-.05-1.14h.05Z"/><line class="cls-5" x1="60.69" y1="80.83" x2="76.33" y2="80.83"/><line class="cls-5" x1="60.69" y1="85.4" x2="76.33" y2="85.4"/><line class="cls-5" x1="61.1" y1="89.96" x2="75.93" y2="89.96"/><line class="cls-5" x1="63.62" y1="94.52" x2="73.4" y2="94.52"/><polygon class="cls-6" points="66.62 56.18 81.61 43.56 54.23 39.23 68.25 27.43 59.61 45.8 72.32 44.49 66.62 56.18"/></g></g></svg>